HIERARCHY
ROOT Hips
{
  OFFSET 5.72205e-005 65.662 3.42586
  CHANNELS 6 Xposition Yposition Zposition Zrotation Xrotation Yrotation
  JOINT Chest
  {
    OFFSET 0 8.7983 -4.7612
    CHANNELS 6 Xposition Yposition Zposition Zrotation Xrotation Yrotation
    JOINT Chest2
    {
      OFFSET 0 8.0291 0.4195
      CHANNELS 6 Xposition Yposition Zposition Zrotation Xrotation Yrotation
      JOINT Chest3
      {
        OFFSET 0 9.9351 -2.2114
        CHANNELS 6 Xposition Yposition Zposition Zrotation Xrotation Yrotation
        JOINT Neck
        {
          OFFSET 0 22.3885 -0.4656
          CHANNELS 6 Xposition Yposition Zposition Zrotation Xrotation Yrotation
          JOINT Head
          {
            OFFSET -0.0001 12.643 3.4389
            CHANNELS 6 Xposition Yposition Zposition Zrotation Xrotation Yrotation
            End Site
            {
              OFFSET 0.0001 17.6655 0.5274
            }
          }
        }
        JOINT LeftCollar
        {
          OFFSET 2.2603 21.606 7.4023
          CHANNELS 6 Xposition Yposition Zposition Zrotation Xrotation Yrotation
          JOINT LeftShoulder
          {
            OFFSET 13.5163 -1.1332 -5.0146
            CHANNELS 6 Xposition Yposition Zposition Zrotation Xrotation Yrotation
            JOINT LeftElbow
            {
              OFFSET -0.0995 -28.05 -0.2431
              CHANNELS 6 Xposition Yposition Zposition Zrotation Xrotation Yrotation
              JOINT LeftWrist
              {
                OFFSET 0.0679 -23.3996 -0.1402
                CHANNELS 6 Xposition Yposition Zposition Zrotation Xrotation Yrotation
                JOINT LeftFinger1
                {
                  OFFSET 0.7932 -9.069 2.5189
                  CHANNELS 6 Xposition Yposition Zposition Zrotation Xrotation Yrotation
                  JOINT LeftFinger11
                  {
                    OFFSET -0.8272 -3.3923 0.5977
                    CHANNELS 6 Xposition Yposition Zposition Zrotation Xrotation Yrotation
                    JOINT LeftFinger12
                    {
                      OFFSET -0.5649 -2.3158 0.4082
                      CHANNELS 6 Xposition Yposition Zposition Zrotation Xrotation Yrotation
                      End Site
                      {
                        OFFSET -0.4919 -1.6479 0.2673
                      }
                    }
                  }
                }
                JOINT LeftFinger2
                {
                  OFFSET 0.9159 -9.2044 0.2193
                  CHANNELS 6 Xposition Yposition Zposition Zrotation Xrotation Yrotation
                  JOINT LeftFinger21
                  {
                    OFFSET 0.0117 -4.1944 -0.0248
                    CHANNELS 6 Xposition Yposition Zposition Zrotation Xrotation Yrotation
                    JOINT LeftFinger22
                    {
                      OFFSET 0.0071 -2.3249 -0.0142
                      CHANNELS 6 Xposition Yposition Zposition Zrotation Xrotation Yrotation
                      End Site
                      {
                        OFFSET -0.1475 -2.0882 0.0028
                      }
                    }
                  }
                }
                JOINT LeftFinger3
                {
                  OFFSET 0.6113 -8.7231 -2.0637
                  CHANNELS 6 Xposition Yposition Zposition Zrotation Xrotation Yrotation
                  JOINT LeftFinger31
                  {
                    OFFSET -0.1927 -3.8059 -0.2383
                    CHANNELS 6 Xposition Yposition Zposition Zrotation Xrotation Yrotation
                    JOINT LeftFinger32
                    {
                      OFFSET -0.1091 -2.1688 -0.1362
                      CHANNELS 6 Xposition Yposition Zposition Zrotation Xrotation Yrotation
                      End Site
                      {
                        OFFSET -0.2358 -1.9176 -0.0906
                      }
                    }
                  }
                }
                JOINT LeftFinger4
                {
                  OFFSET -0.6151 -8.0947 -3.5641
                  CHANNELS 6 Xposition Yposition Zposition Zrotation Xrotation Yrotation
                  JOINT LeftFinger41
                  {
                    OFFSET -0.4882 -2.341 -0.6462
                    CHANNELS 6 Xposition Yposition Zposition Zrotation Xrotation Yrotation
                    JOINT LeftFinger42
                    {
                      OFFSET -0.3575 -1.7167 -0.4742
                      CHANNELS 6 Xposition Yposition Zposition Zrotation Xrotation Yrotation
                      End Site
                      {
                        OFFSET -0.4187 -1.5237 -0.3496
                      }
                    }
                  }
                }
                JOINT LeftFinger0
                {
                  OFFSET -1.42 -1.8761 1.4223
                  CHANNELS 6 Xposition Yposition Zposition Zrotation Xrotation Yrotation
                  JOINT LeftFinger01
                  {
                    OFFSET -1.1471 -3.4929 2.6334
                    CHANNELS 6 Xposition Yposition Zposition Zrotation Xrotation Yrotation
                    JOINT LeftFinger02
                    {
                      OFFSET -0.823 -2.3 1.6571
                      CHANNELS 6 Xposition Yposition Zposition Zrotation Xrotation Yrotation
                      End Site
                      {
                        OFFSET -0.5822 -1.6914 1.1582
                      }
                    }
                  }
                }
              }
            }
          }
        }
        JOINT RightCollar
        {
          OFFSET -2.2603 21.606 7.4023
          CHANNELS 6 Xposition Yposition Zposition Zrotation Xrotation Yrotation
          JOINT RightShoulder
          {
            OFFSET -13.5187 -1.1334 -5.0155
            CHANNELS 6 Xposition Yposition Zposition Zrotation Xrotation Yrotation
            JOINT RightElbow
            {
              OFFSET 0.0994 -28.0499 -0.2431
              CHANNELS 6 Xposition Yposition Zposition Zrotation Xrotation Yrotation
              JOINT RightWrist
              {
                OFFSET -0.0679 -23.3996 -0.1402
                CHANNELS 6 Xposition Yposition Zposition Zrotation Xrotation Yrotation
                JOINT RightFinger1
                {
                  OFFSET -0.7932 -9.0691 2.5189
                  CHANNELS 6 Xposition Yposition Zposition Zrotation Xrotation Yrotation
                  JOINT RightFinger11
                  {
                    OFFSET 0.8272 -3.3923 0.5977
                    CHANNELS 6 Xposition Yposition Zposition Zrotation Xrotation Yrotation
                    JOINT RightFinger12
                    {
                      OFFSET 0.565 -2.3158 0.4082
                      CHANNELS 6 Xposition Yposition Zposition Zrotation Xrotation Yrotation
                      End Site
                      {
                        OFFSET 0.4919 -1.6479 0.2673
                      }
                    }
                  }
                }
                JOINT RightFinger2
                {
                  OFFSET -0.916 -9.2044 0.2193
                  CHANNELS 6 Xposition Yposition Zposition Zrotation Xrotation Yrotation
                  JOINT RightFinger21
                  {
                    OFFSET -0.0117 -4.1944 -0.0248
                    CHANNELS 6 Xposition Yposition Zposition Zrotation Xrotation Yrotation
                    JOINT RightFinger22
                    {
                      OFFSET -0.0071 -2.3249 -0.0142
                      CHANNELS 6 Xposition Yposition Zposition Zrotation Xrotation Yrotation
                      End Site
                      {
                        OFFSET 0.1475 -2.0882 0.0028
                      }
                    }
                  }
                }
                JOINT RightFinger3
                {
                  OFFSET -0.6113 -8.7231 -2.0637
                  CHANNELS 6 Xposition Yposition Zposition Zrotation Xrotation Yrotation
                  JOINT RightFinger31
                  {
                    OFFSET 0.1927 -3.8059 -0.2383
                    CHANNELS 6 Xposition Yposition Zposition Zrotation Xrotation Yrotation
                    JOINT RightFinger32
                    {
                      OFFSET 0.1091 -2.1688 -0.1362
                      CHANNELS 6 Xposition Yposition Zposition Zrotation Xrotation Yrotation
                      End Site
                      {
                        OFFSET 0.2358 -1.9176 -0.0906
                      }
                    }
                  }
                }
                JOINT RightFinger4
                {
                  OFFSET 0.6151 -8.0947 -3.564
                  CHANNELS 6 Xposition Yposition Zposition Zrotation Xrotation Yrotation
                  JOINT RightFinger41
                  {
                    OFFSET 0.4882 -2.341 -0.6462
                    CHANNELS 6 Xposition Yposition Zposition Zrotation Xrotation Yrotation
                    JOINT RightFinger42
                    {
                      OFFSET 0.3574 -1.7166 -0.4742
                      CHANNELS 6 Xposition Yposition Zposition Zrotation Xrotation Yrotation
                      End Site
                      {
                        OFFSET 0.4187 -1.5237 -0.3496
                      }
                    }
                  }
                }
                JOINT RightFinger0
                {
                  OFFSET 1.4199 -1.8761 1.4221
                  CHANNELS 6 Xposition Yposition Zposition Zrotation Xrotation Yrotation
                  JOINT RightFinger01
                  {
                    OFFSET 1.1472 -3.4929 2.6336
                    CHANNELS 6 Xposition Yposition Zposition Zrotation Xrotation Yrotation
                    JOINT RightFinger02
                    {
                      OFFSET 0.8229 -2.3 1.6571
                      CHANNELS 6 Xposition Yposition Zposition Zrotation Xrotation Yrotation
                      End Site
                      {
                        OFFSET 0.5822 -1.6914 1.1582
                      }
                    }
                  }
                }
              }
            }
          }
        }
      }
    }
  }
  JOINT RightHip
  {
    OFFSET -9.412 3.9771 -0.7758
    CHANNELS 6 Xposition Yposition Zposition Zrotation Xrotation Yrotation
    JOINT RightKnee
    {
      OFFSET -0.7531 -40.938 0
      CHANNELS 6 Xposition Yposition Zposition Zrotation Xrotation Yrotation
      JOINT RightAnkle
      {
        OFFSET 0 -40.1986 0
        CHANNELS 6 Xposition Yposition Zposition Zrotation Xrotation Yrotation
        JOINT RightToe
        {
          OFFSET 0 -4.4182 9.239
          CHANNELS 6 Xposition Yposition Zposition Zrotation Xrotation Yrotation
          End Site
          {
            OFFSET 0 0 6.1981
          }
        }
      }
    }
  }
  JOINT LeftHip
  {
    OFFSET 9.4119 3.9773 -0.7758
    CHANNELS 6 Xposition Yposition Zposition Zrotation Xrotation Yrotation
    JOINT LeftKnee
    {
      OFFSET 0.7532 -40.9383 0
      CHANNELS 6 Xposition Yposition Zposition Zrotation Xrotation Yrotation
      JOINT LeftAnkle
      {
        OFFSET 0 -40.1986 0
        CHANNELS 6 Xposition Yposition Zposition Zrotation Xrotation Yrotation
        JOINT LeftToe
        {
          OFFSET 0 -4.4182 9.239
          CHANNELS 6 Xposition Yposition Zposition Zrotation Xrotation Yrotation
          End Site
          {
            OFFSET 0 0 6.1981
          }
        }
      }
    }
  }
}
MOTION
Frames:	4
Frame Time:	0.0333333
5.72205e-005 65.662 3.42586 0 0 -0 0 8.7983 -4.7612 0 0 -0 0 8.0291 0.4195 0 0 -0 0 9.9351 -2.2114 0 0 -0 0 22.3885 -0.4656 0 0 -0 -0.0001 12.643 3.4389 0 0 -0 2.2603 21.606 7.4023 0 0 -12.5014 13.5163 -1.1332 -5.0146 88.1196 14.2451 10.6914 -0.0995 -28.05 -0.2431 -0.00160068 -0.00239207 0.000740045 0.0679 -23.3996 -0.1402 -8.4365e-005 7.00714e-005 -9.52055e-007 0.7932 -9.069 2.5189 9.93923e-017 -1.98785e-016 -1.59028e-015 -0.8272 -3.3923 0.5977 9.93923e-017 -5.96354e-016 -1.59028e-015 -0.5649 -2.3158 0.4082 -9.93923e-017 -5.96354e-016 -1.59028e-015 0.9159 -9.2044 0.2193 9.93923e-017 -1.98785e-016 -1.59028e-015 0.0117 -4.1944 -0.0248 -0.0128176 0.00232552 8.52707e-005 0.0071 -2.3249 -0.0142 9.93923e-017 5.96354e-016 -0 0.6113 -8.7231 -2.0637 9.93923e-017 -1.98785e-016 -1.59028e-015 -0.1927 -3.8059 -0.2383 -0.0160551 0.00299681 0.000857156 -0.1091 -2.1688 -0.1362 -2.48481e-016 0 3.18055e-015 -0.6151 -8.0947 -3.5641 9.93923e-017 -1.98785e-016 -1.59028e-015 -0.4882 -2.341 -0.6462 -0.0125865 0.0031206 0.00282719 -0.3575 -1.7167 -0.4742 0 1.98785e-016 -0 -1.42 -1.8761 1.4223 9.93923e-017 -1.98785e-016 -1.59028e-015 -1.1471 -3.4929 2.6334 9.93923e-017 -5.96354e-016 -1.59028e-015 -0.823 -2.3 1.6571 -9.93923e-017 -5.96354e-016 -1.59028e-015 -2.2603 21.606 7.4023 -0.865644 0.16582 7.03859 -13.5187 -1.1334 -5.0155 -88.0329 10.2057 -10.5567 0.0994 -28.0499 -0.2431 0.0015593 -0.00248883 -0.000788628 -0.0679 -23.3996 -0.1402 7.87605e-005 4.10553e-005 1.24965e-005 -0.7932 -9.0691 2.5189 -3.97569e-016 -7.95139e-016 3.18055e-015 0.8272 -3.3923 0.5977 -1.98785e-016 -3.97569e-016 3.18055e-015 0.565 -2.3158 0.4082 -1.98785e-016 0 3.18055e-015 -0.916 -9.2044 0.2193 -3.97569e-016 -7.95139e-016 3.18055e-015 -0.0117 -4.1944 -0.0248 0.0129473 0.00231697 -8.70038e-005 -0.0071 -2.3249 -0.0142 9.93923e-017 -7.95139e-016 1.59028e-015 -0.6113 -8.7231 -2.0637 -3.97569e-016 -7.95139e-016 3.18055e-015 0.1927 -3.8059 -0.2383 0.0163314 0.00303369 -0.000872333 0.1091 -2.1688 -0.1362 3.97569e-016 7.95139e-016 -3.18055e-015 0.6151 -8.0947 -3.564 -3.97569e-016 -7.95139e-016 3.18055e-015 0.4882 -2.341 -0.6462 0.0145763 0.00367772 -0.00326275 0.3574 -1.7166 -0.4742 9.93923e-017 -3.97569e-016 -0 1.4199 -1.8761 1.4221 -3.97569e-016 -7.95139e-016 3.18055e-015 1.1472 -3.4929 2.6336 -1.98785e-016 -3.97569e-016 3.18055e-015 0.8229 -2.3 1.6571 -1.98785e-016 0 3.18055e-015 -9.412 3.9771 -0.7758 3.42482 1.32465 -0.0626183 -0.7531 -40.938 0 0.000117508 0.717283 0.000978199 0 -40.1986 0 -3.4257 -2.04197 -0.0604716 8.88178e-016 -4.4182 9.239 6.47761e-025 0 -0 9.4119 3.9773 -0.7758 -3.42483 1.34017 0.0627307 0.7532 -40.9383 -2.22045e-016 -0.000193936 0.682302 -0.0013703 -8.88179e-016 -40.1986 0 3.42574 -2.02253 0.0595886 -8.88178e-016 -4.4182 9.239 -8.45714e-024 0 -7.40531e-025 
3.47373 33.7953 37.1423 -0.0136914 0.00203941 -100.022 0 8.7983 -4.7612 0.969771 0.510469 -0.136404 0 8.0291 0.4195 1.94088 1.01856 -0.281441 7.10543e-015 9.9351 -2.2114 1.94088 1.01856 -0.281445 7.10543e-015 22.3885 -0.4656 -0.00732899 7.39816 -0.165104 -0.0001 12.643 3.4389 0.000831146 -27.5576 -0.0922216 2.2603 21.606 7.4023 4.60816 -44.9366 16.0751 13.5163 -1.1332 -5.0146 53.1768 13.3797 -24.0496 -0.0995 -28.05 -0.2431 15.0962 -30.7261 20.0021 0.0679 -23.3996 -0.1402 -5.88759 2.07587 25.0931 0.7932 -9.069 2.5189 4.30162e-006 -2.18316e-006 1.49659e-006 -0.8272 -3.3923 0.5977 -6.36111e-015 3.13086e-015 -1.2921e-015 -0.5649 -2.3158 0.4082 -9.73913e-006 1.79823e-006 -1.1695e-006 0.9159 -9.2044 0.2193 4.30162e-006 -2.18316e-006 1.49659e-006 0.0117 -4.1944 -0.0248 -0.0127909 0.00232814 8.07956e-005 0.0071 -2.3249 -0.0142 -6.20776e-006 -8.15601e-006 -5.74369e-006 0.6113 -8.7231 -2.0637 4.30162e-006 -2.18316e-006 1.49659e-006 -0.1927 -3.8059 -0.2383 -0.0161464 0.00300528 0.000856175 -0.1091 -2.1688 -0.1362 -2.39383e-006 8.9819e-007 3.08045e-008 -0.6151 -8.0947 -3.5641 4.30162e-006 -2.18316e-006 1.49659e-006 -0.4882 -2.341 -0.6462 -0.0126679 0.00314445 0.00284197 -0.3575 -1.7167 -0.4742 -6.20766e-006 -8.13583e-006 -5.74349e-006 -1.42 -1.8761 1.4223 4.30162e-006 -2.18316e-006 1.49659e-006 -1.1471 -3.4929 2.6334 -6.36111e-015 3.13086e-015 -1.2921e-015 -0.823 -2.3 1.6571 -9.73913e-006 1.79823e-006 -1.1695e-006 -2.2603 21.606 7.4023 -2.64288 -32.483 1.65003 -13.5187 -1.1334 -5.0155 -59.7903 1.74163 -8.60344 0.0994 -28.0499 -0.2431 20.4749 -48.3028 9.09722 -0.0679 -23.3996 -0.1402 8.11525 23.6807 -12.0984 -0.7932 -9.0691 2.5189 5.285e-006 -1.38295e-006 -1.68217e-006 0.8272 -3.3923 0.5977 -2.53649e-006 8.75807e-006 -1.00165e-005 0.565 -2.3158 0.4082 6.94519e-007 -1.60631e-006 -1.38777e-006 -0.916 -9.2044 0.2193 5.285e-006 -1.38295e-006 -1.68217e-006 -0.0117 -4.1944 -0.0248 0.0129237 0.00231746 -9.21466e-005 -0.0071 -2.3249 -0.0142 -3.18055e-015 -5.76476e-015 -1.39149e-014 -0.6113 -8.7231 -2.0637 5.285e-006 -1.38295e-006 -1.68217e-006 0.1927 -3.8059 -0.2383 0.0163231 0.00303465 -0.00087261 0.1091 -2.1688 -0.1362 8.12134e-006 -4.09131e-006 5.06252e-006 0.6151 -8.0947 -3.564 5.285e-006 -1.38295e-006 -1.68217e-006 0.4882 -2.341 -0.6462 0.0145886 0.00368227 -0.00325401 0.3574 -1.7166 -0.4742 -1.27222e-014 5.1684e-015 1.19271e-015 1.4199 -1.8761 1.4221 5.285e-006 -1.38295e-006 -1.68217e-006 1.1472 -3.4929 2.6336 -2.53649e-006 8.75807e-006 -1.00165e-005 0.8229 -2.3 1.6571 6.94519e-007 -1.60631e-006 -1.38777e-006 -9.412 3.9771 -0.7758 -1.41347 -9.22735 -2.66902 -0.7531 -40.938 0 -57.0989 84.0771 55.8028 -3.55271e-015 -40.1986 0 -4.62033 16.542 -6.78008 -3.55271e-015 -4.4182 9.239 -1.42404e-005 8.84285e-005 -2.02575e-006 9.4119 3.9773 -0.7758 1.68076 -11.6816 3.36427 0.7532 -40.9383 -8.88178e-016 64.3824 86.138 -63.3451 0 -40.1986 1.33227e-015 -2.23463 25.93 -9.94891 0 -4.4182 9.239 7.36527e-007 2.46747e-005 -3.30505e-006 
7.2763 19.3733 52.8595 -0.0128701 0.0139297 -145.032 -3.55271e-015 8.7983 -4.7612 1.26476 0.934738 0.12326 0 8.0291 0.4195 2.528 1.87196 0.225918 -3.55271e-015 9.9351 -2.2114 2.528 1.87196 0.225914 -3.55271e-015 22.3885 -0.4656 -0.00777929 10.7288 0.582949 -0.0001 12.643 3.4389 0.079339 -39.2305 0.368298 2.2603 21.606 7.4023 30.0209 -57.1177 45.218 13.5163 -1.1332 -5.0146 37.8058 11.5001 -40.5172 -0.0995 -28.05 -0.2431 22.0833 -45.2316 28.3167 0.0679 -23.3996 -0.1402 -8.71635 3.62325 36.7383 0.7932 -9.069 2.5189 1.57788e-005 -2.58067e-005 3.70834e-006 -0.8272 -3.3923 0.5977 3.18055e-015 -6.95746e-016 -0 -0.5649 -2.3158 0.4082 3.27761e-006 -3.52938e-006 -1.49792e-006 0.9159 -9.2044 0.2193 1.57788e-005 -2.58067e-005 3.70834e-006 0.0117 -4.1944 -0.0248 -0.0127962 0.00233958 8.76556e-005 0.0071 -2.3249 -0.0142 1.37238e-005 -1.56988e-005 -2.8962e-006 0.6113 -8.7231 -2.0637 1.57788e-005 -2.58067e-005 3.70834e-006 -0.1927 -3.8059 -0.2383 -0.0160845 0.00300273 0.000850337 -0.1091 -2.1688 -0.1362 4.22749e-006 2.82101e-007 3.50845e-006 -0.6151 -8.0947 -3.5641 1.57788e-005 -2.58067e-005 3.70834e-006 -0.4882 -2.341 -0.6462 -0.0125895 0.00313789 0.00281335 -0.3575 -1.7167 -0.4742 3.18055e-015 2.28602e-015 7.95139e-016 -1.42 -1.8761 1.4223 1.57788e-005 -2.58067e-005 3.70834e-006 -1.1471 -3.4929 2.6334 3.18055e-015 -6.95746e-016 -0 -0.823 -2.3 1.6571 3.27761e-006 -3.52938e-006 -1.49792e-006 -2.2603 21.606 7.4023 -8.61317 -46.2317 -6.21948 -13.5187 -1.1334 -5.0155 -47.3761 -2.56913 -7.50421 0.0994 -28.0499 -0.2431 42.6765 -68.9624 26.6742 -0.0679 -23.3996 -0.1402 12.0585 33.2071 -18.5871 -0.7932 -9.0691 2.5189 6.36111e-015 -1.43125e-014 -7.95139e-016 0.8272 -3.3923 0.5977 -5.51738e-032 -1.59028e-014 -1.98785e-016 0.565 -2.3158 0.4082 -3.18055e-015 -1.39149e-014 -7.95139e-016 -0.916 -9.2044 0.2193 6.36111e-015 -1.43125e-014 -7.95139e-016 -0.0117 -4.1944 -0.0248 0.0129541 0.00231257 -9.05514e-005 -0.0071 -2.3249 -0.0142 6.36111e-015 -3.18055e-015 7.95139e-016 -0.6113 -8.7231 -2.0637 6.36111e-015 -1.43125e-014 -7.95139e-016 0.1927 -3.8059 -0.2383 0.016328 0.00302583 -0.000870797 0.1091 -2.1688 -0.1362 0 3.97569e-016 -0 0.6151 -8.0947 -3.564 6.36111e-015 -1.43125e-014 -7.95139e-016 0.4882 -2.341 -0.6462 0.0145891 0.00366963 -0.00326058 0.3574 -1.7166 -0.4742 -1.10348e-032 -7.95139e-016 -7.95139e-016 1.4199 -1.8761 1.4221 6.36111e-015 -1.43125e-014 -7.95139e-016 1.1472 -3.4929 2.6336 -5.51738e-032 -1.59028e-014 -1.98785e-016 0.8229 -2.3 1.6571 -3.18055e-015 -1.39149e-014 -7.95139e-016 -9.412 3.9771 -0.7758 -3.61534 -12.2379 -5.3343 -0.7531 -40.938 -7.10543e-015 -168.966 54.9727 163.906 -1.24345e-014 -40.1986 -3.55271e-015 -2.58662 24.0796 -11.457 0 -4.4182 9.239 2.67457e-006 6.72412e-006 -1.58377e-005 9.4119 3.9773 -0.7758 4.39532 -16.8018 6.08375 0.7532 -40.9383 0 172.034 53.1528 -167.822 0 -40.1986 0 0.126527 38.0261 -17.2621 -1.42109e-014 -4.4182 9.239 -2.15166e-006 -3.16894e-006 1.38349e-006 
6.34869 22.124 49.2635 -0.0140974 0.0111947 -135.03 -3.55271e-015 8.7983 -4.7612 0.87448 1.26701 0.756525 0 8.0291 0.4195 1.73279 2.54532 1.49414 -7.10543e-015 9.9351 -2.2114 1.73279 2.54531 1.49415 7.10543e-015 22.3885 -0.4656 -0.000382934 9.98809 2.24387 -0.0001 12.643 3.4389 0.186111 -35.0134 1.34751 2.2603 21.606 7.4023 22.2714 -58.1423 34.2169 13.5163 -1.1332 -5.0146 41.1972 12.3226 -36.8726 -0.0995 -28.05 -0.2431 22.0239 -43.8334 27.4036 0.0679 -23.3996 -0.1402 -8.79315 4.8347 34.8517 0.7932 -9.06901 2.5189 7.47273e-008 4.18651e-005 -3.45582e-006 -0.8272 -3.3923 0.5977 2.27619e-006 -4.43515e-005 -1.68988e-005 -0.5649 -2.3158 0.4082 -9.79935e-007 -3.7734e-005 -3.52284e-006 0.9159 -9.20441 0.2193 7.47273e-008 4.18651e-005 -3.45582e-006 0.0117 -4.1944 -0.0248 -0.0128386 0.00230156 8.31122e-005 0.0071 -2.3249 -0.0142 1.29775e-006 -6.8468e-005 -8.41766e-006 0.6113 -8.7231 -2.0637 7.47273e-008 4.18651e-005 -3.45582e-006 -0.1927 -3.8059 -0.2383 -0.0160629 0.00293549 0.000845238 -0.1091 -2.1688 -0.1362 -1.02683e-006 1.79999e-005 -8.73828e-006 -0.6151 -8.0947 -3.5641 7.47273e-008 4.18651e-005 -3.45582e-006 -0.4882 -2.341 -0.6462 -0.0125242 0.00309499 0.00279926 -0.3575 -1.7167 -0.4742 -7.95139e-016 1.98785e-016 3.97569e-016 -1.42 -1.8761 1.4223 7.47273e-008 4.18651e-005 -3.45582e-006 -1.1471 -3.4929 2.6334 2.27619e-006 -4.43515e-005 -1.68988e-005 -0.823 -2.3 1.6571 -9.79935e-007 -3.7734e-005 -3.52284e-006 -2.2603 21.606 7.4023 -11.2995 -41.4758 -11.6047 -13.5187 -1.1334 -5.0155 -50.1047 -1.58811 -7.75179 0.0994 -28.0499 -0.2431 36.3917 -65.2737 21.3898 -0.0679 -23.3996 -0.1402 12.5844 28.6923 -20.3271 -0.7932 -9.06911 2.5189 -5.21427e-006 2.36167e-006 2.75736e-006 0.8272 -3.3923 0.5977 -5.51738e-033 -7.95139e-016 -3.97569e-016 0.565 -2.3158 0.4082 7.82263e-006 1.10385e-005 6.68822e-006 -0.916 -9.20441 0.2193 -5.21427e-006 2.36167e-006 2.75736e-006 -0.0117 -4.1944 -0.0248 0.0129514 0.00231989 -7.4173e-005 -0.0071 -2.3249 -0.0142 3.18055e-015 0 -3.97569e-016 -0.6113 -8.72311 -2.0637 -5.21427e-006 2.36167e-006 2.75736e-006 0.1927 -3.8059 -0.2383 0.0163637 0.00304162 -0.000877396 0.1091 -2.1688 -0.1362 2.23791e-006 -1.64785e-006 4.38722e-006 0.6151 -8.09471 -3.564 -5.21427e-006 2.36167e-006 2.75736e-006 0.4882 -2.341 -0.6462 0.0145688 0.00367405 -0.00325335 0.3574 -1.7166 -0.4742 4.47333e-006 4.70162e-006 1.29455e-006 1.4199 -1.8761 1.4221 -5.21427e-006 2.36167e-006 2.75736e-006 1.1472 -3.4929 2.6336 -5.51738e-033 -7.95139e-016 -3.97569e-016 0.8229 -2.3 1.6571 7.82263e-006 1.10385e-005 6.68822e-006 -9.412 3.9771 -0.7758 -3.12346 -11.671 -4.56989 -0.7531 -40.938 -7.10543e-015 -166.065 62.6447 162.095 0 -40.1986 0 -3.16745 21.8881 -10.2418 3.55271e-015 -4.4182 9.239 -3.18055e-015 9.54166e-015 4.77083e-015 9.4119 3.9773 -0.7758 3.76764 -15.639 5.37651 0.7532 -40.9383 3.55271e-015 170.161 61.0048 -166.877 -7.10543e-015 -40.1986 0 -0.78963 34.7412 -15.3944 0 -4.4182 9.239 -2.87907e-006 5.88403e-014 -2.45788e-006 
